<?xml version="1.0" encoding="UTF-8"?>
<svg width="1600px" height="1051px" viewBox="0 0 1600 1051" version="1.1" xmlns="http://www.w3.org/2000/svg" xmlns:xlink="http://www.w3.org/1999/xlink">
    <title>Combined Shape</title>
    <g id="Home" stroke="none" stroke-width="1" fill="none" fill-rule="evenodd">
        <g transform="translate(0.000000, -3676.000000)" fill="#123C93" id="Blockchain-Monster-Coins">
            <g transform="translate(0.000000, 3606.000000)">
                <path d="M1600,1120.68616 L1519.52466,1120.68616 L1500.10486,1112.68616 L1478.09814,1120.68616 L1403.16931,1120.68616 L1384.35107,1115.68616 L1371.17554,1120.68616 L1159.07739,1120.68616 L1131.29028,1110.68616 L1108.89136,1120.68616 L947.369263,1120.68616 L916.380005,1112.68616 L896.984497,1120.68616 L711.040649,1120.68616 L679.944824,1114.68616 L650.407593,1120.68616 L643.432465,1118.68616 L626.113027,1120.8681 L547.174615,1118.78511 L538.078407,1120.96883 L453.052368,1120.68616 L439.229248,1115.68616 L414.465576,1120.68616 L377.981842,1120.68616 L366.789072,1118.46545 L356.931609,1120.27108 L348.230499,1118.68616 L337.157959,1120.68616 L335.840912,1120.68616 L331.054382,1119.68616 L321.609497,1120.68616 L313.928604,1119.68616 L305.427414,1120.68616 L254.076172,1120.68616 L244.286682,1116.68616 L233.316101,1120.68616 L0,1120.68616 L0,71 L233.316101,71 L244.286682,75 L254.076172,71 L305.427414,71 L313.928604,72 L321.609497,71 L331.054382,72 L335.840912,71 L337.157959,71 L348.230499,73 L356.931609,71.4150778 L366.789072,73.220704 L377.981842,71 L414.465576,71 L439.229248,76 L453.052368,71 L538.078407,70.7173236 L547.174615,72.9010454 L626.113027,70.8180541 L643.432465,73 L650.407593,71 L679.944824,77 L711.040649,71 L896.984497,71 L916.380005,79 L947.369263,71 L1108.89136,71 L1131.29028,81 L1159.07739,71 L1371.17554,71 L1384.35107,76 L1403.16931,71 L1478.09814,71 L1500.10486,79 L1519.52466,71 L1600,71 L1600,1120.68616 Z" id="Combined-Shape"></path>
            </g>
        </g>
    </g>
</svg>